<svg width="750" height="688" version="1.1" xmlns="http://www.w3.org/2000/svg"><g transform="translate(100,100) scale(0.8)"><path class="link" d="M394.540516055287,452.30857489066676L394.540516055287,429.69377866393165L397.6809507331935,429.69377866393165" id="node_8430:node_4501" style="fill: none; stroke-width: 3; stroke: grey; cursor: pointer;"></path><path class="link" d="M394.540516055287,452.30857489066676L394.540516055287,474.92337111740176L395.7693817988157,474.92337111740176" id="node_8430:node_7532" style="fill: none; stroke-width: 3; stroke: grey; cursor: pointer;"></path><path class="link" d="M386.8940840079738,486.23179891090604L386.8940840079738,452.3096045708035L394.54035974548526,452.3096045708035" id="node_6699:node_8430" style="fill: none; stroke-width: 3; stroke: grey; cursor: pointer;"></path><path class="link" d="M386.8940840079738,486.23179891090604L386.8940840079738,520.1539932510086L464.58570712661736,520.1539932510086" id="node_6699:node_9840" style="fill: none; stroke-width: 3; stroke: grey; cursor: pointer;"></path><path class="link" d="M380.88589627275735,525.8048606873162L380.88589627275735,486.22896729052997L386.89368435223065,486.22896729052997" id="node_5446:node_6699" style="fill: none; stroke-width: 3; stroke: grey; cursor: pointer;"></path><path class="link" d="M380.88589627275735,525.8048606873162L380.88589627275735,565.3807540841026L417.9566795358711,565.3807540841026" id="node_5446:node_7857" style="fill: none; stroke-width: 3; stroke: grey; cursor: pointer;"></path><path class="link" d="M381.63728897715987,361.8447564231112L381.63728897715987,339.2299601963761L381.63728897715987,339.2299601963761" id="node_6050:node_3034" style="fill: none; stroke-width: 3; stroke: grey; cursor: pointer;"></path><path class="link" d="M381.63728897715987,361.8447564231112L381.63728897715987,384.4595526498462L381.63728897715987,384.4595526498462" id="node_6050:node_7742" style="fill: none; stroke-width: 3; stroke: grey; cursor: pointer;"></path><path class="link" d="M381.63728897715987,180.92395950605132L381.63728897715987,158.30916327931627L381.63728897715987,158.30916327931627" id="node_2566:node_7356" style="fill: none; stroke-width: 3; stroke: grey; cursor: pointer;"></path><path class="link" d="M381.63728897715987,180.92395950605132L381.63728897715987,203.53875573278634L381.63728897715987,203.53875573278634" id="node_2566:node_2135" style="fill: none; stroke-width: 3; stroke: grey; cursor: pointer;"></path><path class="link" d="M381.63728897715987,214.84718352629062L381.63728897715987,180.92498918618807L381.63728897715987,180.92498918618807" id="node_6808:node_2566" style="fill: none; stroke-width: 3; stroke: grey; cursor: pointer;"></path><path class="link" d="M381.63728897715987,214.84718352629062L381.63728897715987,248.7693778663932L381.63728897715987,248.7693778663932" id="node_6808:node_9387" style="fill: none; stroke-width: 3; stroke: grey; cursor: pointer;"></path><path class="link" d="M381.63728897715987,254.4244743461197L381.63728897715987,214.84858094933335L381.63728897715987,214.84858094933335" id="node_5743:node_6808" style="fill: none; stroke-width: 3; stroke: grey; cursor: pointer;"></path><path class="link" d="M381.63728897715987,254.4244743461197L381.63728897715987,294.00036774290606L381.63728897715987,294.00036774290606" id="node_5743:node_4508" style="fill: none; stroke-width: 3; stroke: grey; cursor: pointer;"></path><path class="link" d="M381.6368697826915,308.13744700499154L381.6368697826915,254.4273059664958L381.6368697826915,254.4273059664958" id="node_7954:node_5743" style="fill: none; stroke-width: 3; stroke: grey; cursor: pointer;"></path><path class="link" d="M381.6368697826915,308.13744700499154L381.6368697826915,361.8475880434873L381.6368697826915,361.8475880434873" id="node_7954:node_6050" style="fill: none; stroke-width: 3; stroke: grey; cursor: pointer;"></path><path class="link" d="M365.5200956562139,416.9672006099146L365.5200956562139,308.1334937687522L381.631890960256,308.1334937687522" id="node_9610:node_7954" style="fill: none; stroke-width: 3; stroke: grey; cursor: pointer;"></path><path class="link" d="M365.5200956562139,416.9672006099146L365.5200956562139,525.8009074510769L380.8809174503218,525.8009074510769" id="node_9610:node_5446" style="fill: none; stroke-width: 3; stroke: grey; cursor: pointer;"></path><path class="link" d="M174.15687967433885,265.02147345476925L174.15687967433885,113.07831130639318L569.9881897287283,113.07831130639318" id="node_6687:node_1901" style="fill: none; stroke-width: 3; stroke: grey; cursor: pointer;"></path><path class="link" d="M174.15687967433885,265.02147345476925L174.15687967433885,416.9646356031453L365.518584069381,416.9646356031453" id="node_6687:node_9610" style="fill: none; stroke-width: 3; stroke: grey; cursor: pointer;"></path><path class="link" d="M116.05633895248809,166.433225261812L116.05633895248809,67.84684796088891L478.0938410598403,67.84684796088891" id="node_6510:node_6513" style="fill: none; stroke-width: 3; stroke: grey; cursor: pointer;"></path><path class="link" d="M116.05633895248809,166.433225261812L116.05633895248809,265.01960256273503L174.15438049375845,265.01960256273503" id="node_6510:node_6687" style="fill: none; stroke-width: 3; stroke: grey; cursor: pointer;"></path><path class="link" d="M20,94.5252403846154L20,22.617255507418818L381.6278801928427,22.617255507418818" id="node_7271:node_6719" style="fill: none; stroke-width: 3; stroke: grey; cursor: pointer;"></path><path class="link" d="M20,94.5252403846154L20,166.433225261812L116.05633895248809,166.433225261812" id="node_7271:node_6510" style="fill: none; stroke-width: 3; stroke: grey; cursor: pointer;"></path><g class="node" transform="translate(417.95743094657814,565.3839951256875)" id="node_7857" style="cursor: crosshair;"><circle class="node" r="4" style="fill: black;"></circle><rect class="node" y="-4px" x="-4px" width="0px" height="0px" style="stroke-width: 2px; stroke: black;"></rect><text x="13" dy=".3em" dx="-.3em" text-anchor="start" font-size="14px" style="fill-opacity: 0.999984; font-family: sans-serif; font-weight: normal; fill: black;">8_KX463032_1</text><text class="triangleText" dy=".35em" font-size="14px" style="fill-opacity: 1e-06; font-family: sans-serif;"></text><path d="M0,0L0,0L0,0L0,0"></path></g><g class="node" transform="translate(464.586617692,520.1533138329063)" id="node_9840" style="cursor: crosshair;"><circle class="node" r="4" style="fill: black;"></circle><rect class="node" y="-4px" x="-4px" width="0px" height="0px" style="stroke-width: 2px; stroke: black;"></rect><text x="13" dy=".3em" dx="-.3em" text-anchor="start" font-size="14px" style="fill-opacity: 0.999984; font-family: sans-serif; font-weight: normal; fill: black;">10_MG938643_1</text><text class="triangleText" dy=".35em" font-size="14px" style="fill-opacity: 1e-06; font-family: sans-serif;"></text><path d="M0,0L0,0L0,0L0,0"></path></g><g class="node" transform="translate(395.76960266823437,474.9226946550468)" id="node_7532" style="cursor: crosshair;"><circle class="node" r="4" style="fill: black;"></circle><rect class="node" y="-4px" x="-4px" width="0px" height="0px" style="stroke-width: 2px; stroke: black;"></rect><text x="13" dy=".3em" dx="-.3em" text-anchor="start" font-size="14px" style="fill-opacity: 0.999984; font-family: sans-serif; font-weight: normal; fill: black;">9_MG734215_1</text><text class="triangleText" dy=".35em" font-size="14px" style="fill-opacity: 1e-06; font-family: sans-serif;"></text><path d="M0,0L0,0L0,0L0,0"></path></g><g class="node" transform="translate(397.68119244198436,429.69269230734375)" id="node_4501" style="cursor: crosshair;"><circle class="node" r="4" style="fill: black;"></circle><rect class="node" y="-4px" x="-4px" width="0px" height="0px" style="stroke-width: 2px; stroke: black;"></rect><text x="13" dy=".3em" dx="-.3em" text-anchor="start" font-size="14px" style="fill-opacity: 0.999984; font-family: sans-serif; font-weight: normal; fill: black;">3_HQ696878_1</text><text class="triangleText" dy=".35em" font-size="14px" style="fill-opacity: 1e-06; font-family: sans-serif;"></text><path d="M0,0L0,0L0,0L0,0"></path></g><g class="node" transform="translate(394.54058516921873,452.30823401865626)" id="node_8430" style="cursor: crosshair;"><circle class="node" r="4" style="fill: black;"></circle><rect class="node" y="-4px" x="-4px" width="0px" height="0px" style="stroke-width: 2px; stroke: black;"></rect><text x="-13" dy="-.3em" dx=".3em" text-anchor="end" font-size="14px" style="fill-opacity: 0.999984; font-family: sans-serif; font-weight: normal;"></text><text class="triangleText" dy=".35em" font-size="14px" style="fill-opacity: 1e-06; font-family: sans-serif;" x="0"></text><path d="M0,0L0,0L0,0L0,0"></path></g><g class="node" transform="translate(386.89412764021876,486.2314223537813)" id="node_6699" style="cursor: crosshair;"><circle class="node" r="4" style="fill: black;"></circle><rect class="node" y="-4px" x="-4px" width="0px" height="0px" style="stroke-width: 2px; stroke: black;"></rect><text x="-13" dy="-.3em" dx=".3em" text-anchor="end" font-size="14px" style="fill-opacity: 0.999984; font-family: sans-serif; font-weight: normal;"></text><text class="triangleText" dy=".35em" font-size="14px" style="fill-opacity: 1e-06; font-family: sans-serif;" x="0"></text><path d="M0,0L0,0L0,0L0,0"></path></g><g class="node" transform="translate(380.88603982590627,525.8058950451563)" id="node_5446" style="cursor: crosshair;"><circle class="node" r="4" style="fill: black;"></circle><rect class="node" y="-4px" x="-4px" width="0px" height="0px" style="stroke-width: 2px; stroke: black;"></rect><text x="-13" dy="-.3em" dx=".3em" text-anchor="end" font-size="14px" style="fill-opacity: 0.999984; font-family: sans-serif; font-weight: normal;"></text><text class="triangleText" dy=".35em" font-size="14px" style="fill-opacity: 1e-06; font-family: sans-serif;" x="0"></text><path d="M0,0L0,0L0,0L0,0"></path></g><g class="node" transform="translate(381.6372985839844,384.4611773210625)" id="node_7742" style="cursor: crosshair;"><circle class="node" r="4" style="fill: black;"></circle><rect class="node" y="-4px" x="-4px" width="0px" height="0px" style="stroke-width: 2px; stroke: black;"></rect><text x="13" dy=".3em" dx="-.3em" text-anchor="start" font-size="14px" style="fill-opacity: 0.999984; font-family: sans-serif; font-weight: normal; fill: black;">13_MT447505_1</text><text class="triangleText" dy=".35em" font-size="14px" style="fill-opacity: 1e-06; font-family: sans-serif;"></text><path d="M0,0L0,0L0,0L0,0"></path></g><g class="node" transform="translate(381.6372985839844,339.2311444562813)" id="node_3034" style="cursor: crosshair;"><circle class="node" r="4" style="fill: black;"></circle><rect class="node" y="-4px" x="-4px" width="0px" height="0px" style="stroke-width: 2px; stroke: black;"></rect><text x="13" dy=".3em" dx="-.3em" text-anchor="start" font-size="14px" style="fill-opacity: 0.999984; font-family: sans-serif; font-weight: normal; fill: black;">2_HQ671187_1</text><text class="triangleText" dy=".35em" font-size="14px" style="fill-opacity: 1e-06; font-family: sans-serif;"></text><path d="M0,0L0,0L0,0L0,0"></path></g><g class="node" transform="translate(381.6372985839844,361.8452808786718)" id="node_6050" style="cursor: crosshair;"><circle class="node" r="4" style="fill: black;"></circle><rect class="node" y="-4px" x="-4px" width="0px" height="0px" style="stroke-width: 2px; stroke: black;"></rect><text x="-13" dy="-.3em" dx=".3em" text-anchor="end" font-size="14px" style="fill-opacity: 0.999984; font-family: sans-serif; font-weight: normal;"></text><text class="triangleText" dy=".35em" font-size="14px" style="fill-opacity: 1e-06; font-family: sans-serif;" x="0"></text><path d="M0,0L0,0L0,0L0,0"></path></g><g class="node" transform="translate(381.6372985839844,293.99935157174997)" id="node_4508" style="cursor: crosshair;"><circle class="node" r="4" style="fill: black;"></circle><rect class="node" y="-4px" x="-4px" width="0px" height="0px" style="stroke-width: 2px; stroke: black;"></rect><text x="13" dy=".3em" dx="-.3em" text-anchor="start" font-size="14px" style="fill-opacity: 0.999984; font-family: sans-serif; font-weight: normal; fill: black;">6_KJ584541_1</text><text class="triangleText" dy=".35em" font-size="14px" style="fill-opacity: 1e-06; font-family: sans-serif;"></text><path d="M0,0L0,0L0,0L0,0"></path></g><g class="node" transform="translate(381.6372985839844,248.76867027871873)" id="node_9387" style="cursor: crosshair;"><circle class="node" r="4" style="fill: black;"></circle><rect class="node" y="-4px" x="-4px" width="0px" height="0px" style="stroke-width: 2px; stroke: black;"></rect><text x="13" dy=".3em" dx="-.3em" text-anchor="start" font-size="14px" style="fill-opacity: 0.999984; font-family: sans-serif; font-weight: normal; fill: black;">11_MT196795_1</text><text class="triangleText" dy=".35em" font-size="14px" style="fill-opacity: 1e-06; font-family: sans-serif;"></text><path d="M0,0L0,0L0,0L0,0"></path></g><g class="node" transform="translate(381.6372985839844,203.53809687672657)" id="node_2135" style="cursor: crosshair;"><circle class="node" r="4" style="fill: black;"></circle><rect class="node" y="-4px" x="-4px" width="0px" height="0px" style="stroke-width: 2px; stroke: black;"></rect><text x="13" dy=".3em" dx="-.3em" text-anchor="start" font-size="14px" style="fill-opacity: 0.999984; font-family: sans-serif; font-weight: normal; fill: black;">7_KX463025_1</text><text class="triangleText" dy=".35em" font-size="14px" style="fill-opacity: 1e-06; font-family: sans-serif;"></text><path d="M0,0L0,0L0,0L0,0"></path></g><g class="node" transform="translate(381.6372985839844,158.30806401194533)" id="node_7356" style="cursor: crosshair;"><circle class="node" r="4" style="fill: black;"></circle><rect class="node" y="-4px" x="-4px" width="0px" height="0px" style="stroke-width: 2px; stroke: black;"></rect><text x="13" dy=".3em" dx="-.3em" text-anchor="start" font-size="14px" style="fill-opacity: 0.999984; font-family: sans-serif; font-weight: normal; fill: black;">12_MT408911_1</text><text class="triangleText" dy=".35em" font-size="14px" style="fill-opacity: 1e-06; font-family: sans-serif;"></text><path d="M0,0L0,0L0,0L0,0"></path></g><g class="node" transform="translate(381.6372985839844,180.92363624008593)" id="node_2566" style="cursor: crosshair;"><circle class="node" r="4" style="fill: black;"></circle><rect class="node" y="-4px" x="-4px" width="0px" height="0px" style="stroke-width: 2px; stroke: black;"></rect><text x="-13" dy="-.3em" dx=".3em" text-anchor="end" font-size="14px" style="fill-opacity: 0.999984; font-family: sans-serif; font-weight: normal;"></text><text class="triangleText" dy=".35em" font-size="14px" style="fill-opacity: 1e-06; font-family: sans-serif;" x="0"></text><path d="M0,0L0,0L0,0L0,0"></path></g><g class="node" transform="translate(381.6372985839844,214.8468093169219)" id="node_6808" style="cursor: crosshair;"><circle class="node" r="4" style="fill: black;"></circle><rect class="node" y="-4px" x="-4px" width="0px" height="0px" style="stroke-width: 2px; stroke: black;"></rect><text x="-13" dy="-.3em" dx=".3em" text-anchor="end" font-size="14px" style="fill-opacity: 0.999984; font-family: sans-serif; font-weight: normal;"></text><text class="triangleText" dy=".35em" font-size="14px" style="fill-opacity: 1e-06; font-family: sans-serif;" x="0"></text><path d="M0,0L0,0L0,0L0,0"></path></g><g class="node" transform="translate(381.6372985839844,254.42396045408594)" id="node_5743" style="cursor: crosshair;"><circle class="node" r="4" style="fill: black;"></circle><rect class="node" y="-4px" x="-4px" width="0px" height="0px" style="stroke-width: 2px; stroke: black;"></rect><text x="-13" dy="-.3em" dx=".3em" text-anchor="end" font-size="14px" style="fill-opacity: 0.999984; font-family: sans-serif; font-weight: normal;"></text><text class="triangleText" dy=".35em" font-size="14px" style="fill-opacity: 1e-06; font-family: sans-serif;" x="0"></text><path d="M0,0L0,0L0,0L0,0"></path></g><g class="node" transform="translate(381.6370346014844,308.1363962151094)" id="node_7954" style="cursor: crosshair;"><circle class="node" r="4" style="fill: black;"></circle><rect class="node" y="-4px" x="-4px" width="0px" height="0px" style="stroke-width: 2px; stroke: black;"></rect><text x="-13" dy="-.3em" dx=".3em" text-anchor="end" font-size="14px" style="fill-opacity: 0.999984; font-family: sans-serif; font-weight: normal;"></text><text class="triangleText" dy=".35em" font-size="14px" style="fill-opacity: 1e-06; font-family: sans-serif;" x="0"></text><path d="M0,0L0,0L0,0L0,0"></path></g><g class="node" transform="translate(365.5219500972187,416.96867138717187)" id="node_9610" style="cursor: crosshair;"><circle class="node" r="4" style="fill: black;"></circle><rect class="node" y="-4px" x="-4px" width="0px" height="0px" style="stroke-width: 2px; stroke: black;"></rect><text x="-13" dy="-.3em" dx=".3em" text-anchor="end" font-size="14px" style="fill-opacity: 0.999984; font-family: sans-serif; font-weight: normal;"></text><text class="triangleText" dy=".35em" font-size="14px" style="fill-opacity: 1e-06; font-family: sans-serif;" x="0"></text><path d="M0,0L0,0L0,0L0,0"></path></g><g class="node" transform="translate(569.9935145309998,113.07940905741411)" id="node_1901" style="cursor: crosshair;"><circle class="node" r="4" style="fill: black;"></circle><rect class="node" y="-4px" x="-4px" width="0px" height="0px" style="stroke-width: 2px; stroke: black;"></rect><text x="13" dy=".3em" dx="-.3em" text-anchor="start" font-size="14px" style="fill-opacity: 0.999984; font-family: sans-serif; font-weight: normal; fill: black;">1_FR671158_1</text><text class="triangleText" dy=".35em" font-size="14px" style="fill-opacity: 1e-06; font-family: sans-serif;"></text><path d="M0,0L0,0L0,0L0,0"></path></g><g class="node" transform="translate(174.15743432746874,265.02243257006245)" id="node_6687" style="cursor: crosshair;"><circle class="node" r="4" style="fill: black;"></circle><rect class="node" y="-4px" x="-4px" width="0px" height="0px" style="stroke-width: 2px; stroke: black;"></rect><text x="-13" dy="-.3em" dx=".3em" text-anchor="end" font-size="14px" style="fill-opacity: 0.999984; font-family: sans-serif; font-weight: normal;"></text><text class="triangleText" dy=".35em" font-size="14px" style="fill-opacity: 1e-06; font-family: sans-serif;" x="0"></text><path d="M0,0L0,0L0,0L0,0"></path></g><g class="node" transform="translate(478.09984214878114,67.84776854040237)" id="node_6513" style="cursor: crosshair;"><circle class="node" r="4" style="fill: black;"></circle><rect class="node" y="-4px" x="-4px" width="0px" height="0px" style="stroke-width: 2px; stroke: black;"></rect><text x="13" dy=".3em" dx="-.3em" text-anchor="start" font-size="14px" style="fill-opacity: 0.999984; font-family: sans-serif; font-weight: normal; fill: black;">5_JX003859_1</text><text class="triangleText" dy=".35em" font-size="14px" style="fill-opacity: 1e-06; font-family: sans-serif;"></text><path d="M0,0L0,0L0,0L0,0"></path></g><g class="node" transform="translate(116.05726406262497,166.4339109403281)" id="node_6510" style="cursor: crosshair;"><circle class="node" r="4" style="fill: black;"></circle><rect class="node" y="-4px" x="-4px" width="0px" height="0px" style="stroke-width: 2px; stroke: black;"></rect><text x="-13" dy="-.3em" dx=".3em" text-anchor="end" font-size="14px" style="fill-opacity: 0.999984; font-family: sans-serif; font-weight: normal;"></text><text class="triangleText" dy=".35em" font-size="14px" style="fill-opacity: 1e-06; font-family: sans-serif;" x="0"></text><path d="M0,0L0,0L0,0L0,0"></path></g><g class="node" transform="translate(381.6313735184843,22.61656322657326)" id="node_6719" style="cursor: crosshair;"><circle class="node" r="4" style="fill: black;"></circle><rect class="node" y="-4px" x="-4px" width="0px" height="0px" style="stroke-width: 2px; stroke: black;"></rect><text x="13" dy=".3em" dx="-.3em" text-anchor="start" font-size="14px" style="fill-opacity: 0.999984; font-family: sans-serif; font-weight: normal; fill: black;">4_JK747246_1</text><text class="triangleText" dy=".35em" font-size="14px" style="fill-opacity: 1e-06; font-family: sans-serif;"></text><path d="M0,0L0,0L0,0L0,0"></path></g><g class="node" transform="translate(19.999672319999995,94.52368933560935)" id="node_7271" style="cursor: crosshair;"><circle class="node" r="4" style="fill: black;"></circle><rect class="node" y="-4px" x="-4px" width="0px" height="0px" style="stroke-width: 2px; stroke: black;"></rect><text x="-13" dy="-.3em" dx=".3em" text-anchor="end" font-size="14px" style="fill-opacity: 0.999984; font-family: sans-serif; font-weight: normal;"></text><text class="triangleText" dy=".35em" font-size="14px" style="fill-opacity: 1e-06; font-family: sans-serif;" x="0"></text><path d="M0,0L0,0L0,0L0,0"></path></g></g></svg>